<?xml version="1.0" encoding="UTF-8"?>
<svg id="Layer_2" data-name="Layer 2" xmlns="http://www.w3.org/2000/svg" xmlns:xlink="http://www.w3.org/1999/xlink" viewBox="0 0 803.48 803.48">
  <defs>
    <style>
      .cls-1 {
        fill: #fff;
      }

      .cls-2 {
        fill: #534c54;
      }

      .cls-3 {
        clip-path: url(#clippath-2);
      }

      .cls-4 {
        clip-path: url(#clippath-1);
      }

      .cls-5 {
        fill: #de7763;
      }

      .cls-6 {
        fill: #82546a;
      }

      .cls-7 {
        clip-path: url(#clippath);
      }

      .cls-8 {
        fill: none;
      }

      .cls-9 {
        clip-path: url(#clippath-3);
      }

      .cls-10 {
        fill: #b1b465;
      }

      .cls-11 {
        fill: #f4ae6a;
      }

      .cls-12 {
        fill: #a7d9d0;
      }
    </style>
    <clipPath id="clippath">
      <rect class="cls-8" width="803.48" height="803.48"/>
    </clipPath>
    <clipPath id="clippath-1">
      <rect class="cls-8" width="803.48" height="803.48"/>
    </clipPath>
    <clipPath id="clippath-2">
      <rect class="cls-8" width="803.48" height="803.48"/>
    </clipPath>
    <clipPath id="clippath-3">
      <rect class="cls-8" width="803.48" height="803.48"/>
    </clipPath>
  </defs>
  <g id="Layer_1-2" data-name="Layer 1">
    <g>
      <polygon class="cls-6" points="596.83 740.82 62.16 597.52 205.49 62.85 740.16 206.15 596.85 740.82 596.83 740.82"/>
      <path class="cls-1" d="M201.25,55.52L747.46,201.92l-146.4,546.21L54.85,601.73,201.25,55.52Zm8.45,14.63L69.49,593.28l523.13,140.21L732.83,210.37,209.7,70.15"/>
      <polygon class="cls-12" points="503.9 779.52 26.53 503.9 302.15 26.56 779.52 302.15 503.93 779.52 503.9 779.52"/>
      <path class="cls-1" d="M299.96,18.42l487.67,281.54-281.54,487.67L18.42,506.09,299.96,18.42Zm4.36,16.25L34.67,501.74l467.06,269.64,269.64-467.06L304.32,34.67"/>
      <polygon class="cls-10" points="401.74 791.51 11.99 401.74 401.74 11.99 791.51 401.77 401.74 791.54 401.74 791.51"/>
      <path class="cls-1" d="M401.74,3.57l398.17,398.17-398.17,398.17L3.57,401.74,401.74,3.57Zm0,16.82L20.39,401.74l381.35,381.35,381.35-381.35L401.74,20.39"/>
      <polygon class="cls-11" points="302.15 779.52 26.53 302.15 503.9 26.56 779.49 503.93 302.13 779.52 302.15 779.52"/>
      <path class="cls-1" d="M506.07,18.42l281.54,487.67-487.67,281.54L18.42,299.96,506.07,18.42Zm-4.35,16.25L34.67,304.32l269.64,467.06,467.06-269.64L501.71,34.67"/>
      <rect class="cls-5" x="122.78" y="125.06" width="553.54" height="553.54" transform="translate(-90.41 117.14) rotate(-15)"/>
      <path class="cls-1" d="M599.45,55.52l146.4,546.21L199.63,748.13,53.23,201.92,599.45,55.52Zm-8.45,14.63L67.87,210.37,208.08,733.49l523.13-140.21L591,70.15"/>
      <rect class="cls-1" x="124.55" y="124.55" width="551.21" height="551.21"/>
      <path class="cls-1" d="M118.6,118.6H681.71V681.71H118.6V118.6Zm11.9,551.21H669.81V130.5H130.5V669.81Z"/>
      <g class="cls-7">
        <path class="cls-2" d="M252.01,211.56c9.35,0,18.51,2.76,26.27,8v7.73c-22.51-18.63-60.8-7.19-59.61,26.01-1.19,33.2,37.1,44.67,59.61,26.01v7.73c-64.42,39.72-99.45-70.22-26.27-75.48"/>
      </g>
      <path class="cls-2" d="M335.16,263.58l16.02-39.34,16.13,39.34h-32.15Zm19.35-50.28h-6.02l-33.08,80.03h7.62l9.45-23.2h37.48l9.59,23.2h8l-33.05-80.03h.02Z"/>
      <polygon class="cls-2" points="432.87 213.29 432.87 286.8 470.87 286.8 470.87 293.32 425.51 293.32 425.51 213.29 432.84 213.29 432.87 213.29"/>
      <g class="cls-4">
        <path class="cls-2" d="M516.44,213.1l31.34,70.3,31.34-70.3h8v80.03h-7.33c.02-8.45-.1-61.01,.12-67.49-2.12,6.62-25.96,59.37-29.46,67.49h-5.88c-3.67-8.45-27.2-60.56-29.48-67.49,.24,6.16,.09,59.37,.12,67.49h-7.07v-80.03h8.31Z"/>
      </g>
      <polygon class="cls-2" points="212.1 358.03 220.5 358.03 245.97 399.12 271.43 358.03 279.42 358.03 249.42 405.91 249.42 438.05 242.09 438.05 242.09 405.91 212.08 358.03 212.1 358.03"/>
      <g class="cls-3">
        <path class="cls-2" d="M350.91,433.25c-43.98,1.45-43.98-71.87,0-70.44,43.93-1.36,43.93,71.8,0,70.44m0-77.22c-53.9-1.12-53.88,85.24,0,84.03,53.9,1.14,53.9-85.1,0-84.03"/>
        <path class="cls-2" d="M422.9,358.03h7.33c1.21,22.56-8.47,78.01,25.75,75.22,34.27,2.81,24.7-52.64,25.87-75.22h7.33c-.71,29.39,8.35,84-33.22,82.03-41.45,2.02-32.36-52.78-33.08-82.03h.02Z"/>
        <path class="cls-2" d="M540.62,398.43v-33.89c14.83-.48,35.91-2.02,34.82,16.94,1.12,19.04-20.04,17.4-34.82,16.94Zm24.54,5.73c26.41-5.69,22.92-47.45-7.07-46.14h-24.8v80.03h7.33v-33.08h16.83l22.94,33.08h8.66l-23.87-33.89h-.02Z"/>
        <path class="cls-2" d="M212.67,571.56c29.56,29.7,70.65-11.73,23.25-25.94-47.67-14.85-10.71-64.94,24.65-38.76l-1.71,6.71c-10.95-9.42-37.79-10.07-37.5,7.57,.19,22.32,45.83,13.76,43.48,43.34-.9,28.48-37.27,30.27-53.73,14.97l1.57-7.85v-.02Z"/>
      </g>
      <polygon class="cls-2" points="317.38 501.57 317.38 538.65 368.43 538.65 368.43 501.57 376.28 501.57 376.28 587.12 368.43 587.12 368.43 545.62 317.38 545.62 317.38 587.12 309.53 587.12 309.53 501.57 317.38 501.57"/>
      <polygon class="cls-2" points="528.91 506.83 527.63 499.83 596.49 499.83 597.78 506.83 565.99 506.83 567.27 585.38 559.42 585.38 558.13 506.83 528.91 506.83"/>
      <polygon class="cls-2" points="657.53 657.2 506.45 657.2 506.45 651.09 651.44 651.09 651.44 149.23 148.87 149.23 148.87 651.09 454.83 651.09 454.83 565.58 460.95 565.58 460.95 657.18 142.78 657.18 142.78 143.11 657.53 143.11 657.53 657.18 657.53 657.2"/>
      <g class="cls-9">
        <path class="cls-2" d="M476.84,528.22c-5.43-2.74-11.92-1.31-17.16-4.81,7.61-4.5,21.35-1.07,21.73-13.45-9.47-8.76-15.71,7.33-22.56,11.85,.26-8.73,10.47-19.8-.88-25.68-11.35,5.88-1.14,16.92-.88,25.68-6.83-4.5-13.11-20.61-22.56-11.83,.4,12.38,14.11,8.95,21.73,13.45-7.61,4.5-21.32,1.07-21.73,13.45,9.47,8.76,15.71-7.33,22.56-11.83-.26,8.73-10.47,19.8,.9,25.65,11.35-5.88,1.14-16.92,.88-25.65,5.45,3.02,7.16,9.42,12.07,12.95,9.92,4.07,14.11-2.86,5.9-9.76v-.02Z"/>
      </g>
    </g>
  </g>
</svg>